<svg fill="none" height="216" viewBox="0 0 768 216" width="768" xmlns="http://www.w3.org/2000/svg" xmlns:xlink="http://www.w3.org/1999/xlink"><clipPath id="a"><path d="m0 0h768v216h-768z"/></clipPath><g clip-path="url(#a)"><path d="m324 43c0-2.5 2.188-5 5-5h10c2.5 0 5 2.5 5 5v5h15c2.5 0 5 2.5 5 5v15h40v-15c0-2.5 2.188-5 5-5h15v-5c0-2.5 2.188-5 5-5h10c2.5 0 5 2.5 5 5v10c0 2.8125-2.5 5-5 5h-15v10 10h15c2.5 0 5 2.5 5 5v15h10v-25c0-2.5 2.188-5 5-5h10c2.5 0 5 2.5 5 5v40c0 2.812-2.5 5-5 5h-15v25c0 2.812-2.5 5-5 5h-15v25c0 2.812-2.5 5-5 5h-15-15c-2.812 0-5-2.188-5-5v-10c0-2.5 2.188-5 5-5h15v-10h-60v10h15c2.5 0 5 2.5 5 5v10c0 2.812-2.5 5-5 5h-15-15c-2.812 0-5-2.188-5-5v-25h-15c-2.812 0-5-2.188-5-5v-25h-15c-2.812 0-5-2.188-5-5v-40c0-2.5 2.188-5 5-5h10c2.5 0 5 2.5 5 5v25h10v-15c0-2.5 2.188-5 5-5h15v-10-10h-15c-2.812 0-5-2.1875-5-5zm20 60v20c0 2.812 2.188 5 5 5h10c2.5 0 5-2.188 5-5v-20c0-2.5-2.5-5-5-5h-10c-2.812 0-5 2.5-5 5zm60 0v20c0 2.812 2.188 5 5 5h10c2.5 0 5-2.188 5-5v-20c0-2.5-2.5-5-5-5h-10c-2.812 0-5 2.5-5 5z" fill="#183153"/><g fill="#66a80f"><path d="m62.4686 67.5969c-.728-2.7166-3.1861-4.6462-6.0862-5.8102-3.9674-1.5251-7.051-4.5812-8.1833-8.8071-2.1029-7.8482 4.5695-16.7536 15.4362-19.6653 10.5648-2.8308 21.0979 1.4644 23.2008 9.3125 1.1323 4.2259-.3119 8.4952-2.9852 11.7997-1.9295 2.4582-2.7918 5.2774-2.0638 7.9941 1.0514 3.924 4.8788 6.1337 8.8028 5.0823l17.2051-4.6102c7.849-2.1029 16.269 2.7584 18.372 10.6066l4.61 17.2055c1.051 3.9241 4.879 6.1338 8.803 5.0824 2.716-.728 4.727-2.8843 5.891-5.7844 1.525-3.9674 4.5-7.3528 8.726-8.4851 7.848-2.1029 16.835 4.8714 19.665 15.4362 2.912 10.8671-1.464 21.0981-9.312 23.2011-4.226 1.132-8.414-.01-11.719-2.684-2.458-1.929-5.358-3.093-8.075-2.365-3.924 1.051-6.053 5.18-5.001 9.104l9.705 36.223c2.184 8.15-2.758 16.268-10.606 18.371l-17.206 4.61c-3.924 1.051-7.751-1.158-8.803-5.082-.728-2.717.135-5.536 2.064-7.994 2.673-3.305 4.118-7.574 2.985-11.8-2.103-7.848-12.636-12.143-23.2004-9.313-10.8667 2.912-17.5391 11.818-15.4362 19.666 1.1323 4.226 4.2158 7.282 8.1833 8.807 2.9001 1.164 5.3582 3.093 6.0861 5.81 1.0515 3.924-1.4601 7.832-5.3841 8.884l-36.2223 9.705c-8.15 2.184-16.1873-2.456-18.3711-10.606l-9.7057-36.222c-1.0515-3.924 1.0773-8.054 5.0014-9.105 2.7167-.728 5.6168.436 8.0749 2.366 3.3045 2.673 7.4929 3.815 11.7188 2.683 7.8482-2.103 12.2243-12.334 9.3126-23.201-2.8309-10.565-11.8172-17.539-19.6653-15.436-4.2259 1.132-7.2011 4.518-8.7262 8.485-1.1641 2.9-3.1745 5.057-5.8912 5.784-3.9241 1.052-7.7514-1.158-8.8028-5.082l-4.6102-17.205c-2.10295-7.8486 2.4566-16.1878 10.6066-18.3716l36.2222-9.7057c3.924-1.0515 6.4356-4.9597 5.3842-8.8838z"/><path d="m624.658 41.0789 86.933-23.2937 9.659-2.5882c5.132-1.375 10.873 1.9396 12.248 7.071l25.881 96.593c1.456 5.433-1.939 10.872-7.071 12.247l5.177 19.319c5.131-1.375 10.872 1.939 12.247 7.071 1.456 5.433-1.939 10.872-7.071 12.247l-9.659 2.588-86.933 23.294c-15.999 4.287-32.456-5.215-36.743-21.213l-25.882-96.5928c-4.286-15.9981 5.215-32.4556 21.214-36.7423zm31.058 115.9111c-5.434 1.456-8.446 7.116-7.071 12.247 1.456 5.434 6.814 8.527 12.247 7.071l77.274-20.705-5.176-19.319zm35.829-69.1288-10.397 8.2859c-1.871 1.4717-1.143 4.1879 1.213 4.5279l13.066 1.675 7.984 10.478c1.472 1.871 4.188 1.143 4.528-1.213l1.977-13.1472 10.176-7.9031c1.871-1.4717 1.143-4.1883-1.213-4.5277l-12.845-2.058-8.205-10.0954c-1.472-1.8704-4.189-1.1424-4.528 1.2132zm-38.765-28.7595-1.039 5.7786-4.706 4.1725c-1.568 1.3908-.84 4.1075 1.213 4.5278l6.081.9589 3.87 4.7863c1.391 1.5685 4.108.8406 4.528-1.2132l1.261-6.1613 4.485-3.7898c1.568-1.3908.84-4.1075-1.214-4.5277l-5.859-1.3417-4.092-4.4036c-1.391-1.5684-4.107-.8405-4.528 1.2132z"/><path d="m200.793 30.6632 48.296-12.941c5.282-1.4154 10.832 1.7887 12.247 7.0711l12.941 48.2963c1.456 5.4333-1.788 10.832-7.071 12.2474l-48.296 12.941c-5.433 1.4558-10.792-1.6378-12.247-7.0711l-12.941-48.2963c-1.416-5.2824 1.637-10.7916 7.071-12.2474zm17.083 19.6867.041.1509c-.119 1.9729 1.353 3.8432 3.517 4.0721 1.973.1184 3.844-1.3533 3.922-3.4771l.11-.1914c.03-.4932.402-.9163.854-1.0377l8.754-2.3455c1.358-.364 2.657.2585 3.021 1.6168.203.7547-.048 1.6306-.681 2.2856l-5.63 5.5525c-1.046.9272-1.326 2.2964-.962 3.6547l.526 1.9621c.566 2.1129 2.48 3.2178 4.593 2.6516 1.962-.5257 3.067-2.4394 2.692-4.4418l4.061-4.1617c2.423-2.4286 3.536-6.1237 2.646-9.4441-1.416-5.2824-6.965-8.4865-12.248-7.0711l-8.753 2.3456c-3.622.9705-6.185 4.0837-6.463 7.8785zm15.823 25.848c.728 2.7167 3.407 4.2635 6.124 3.5355 2.566-.6875 4.263-3.407 3.536-6.1237-.688-2.5657-3.558-4.223-6.124-3.5355-2.717.7279-4.223 3.5579-3.536 6.1237zm-32.409-34.021c.566 2.1129 2.479 3.2178 4.592 2.6516 1.962-.5257 3.218-2.4798 2.652-4.5928-.526-1.962-2.631-3.1773-4.593-2.6516-2.113.5662-3.177 2.6307-2.651 4.5928zm48.533-16.8867c-2.113.5661-3.178 2.6307-2.652 4.5928.566 2.1129 2.48 3.2178 4.593 2.6516 1.962-.5257 3.218-2.4798 2.652-4.5928-.526-1.962-2.631-3.1773-4.593-2.6516zm-36.239 62.7682c.566 2.1129 2.479 3.2178 4.592 2.6516 1.962-.5257 3.218-2.4798 2.652-4.5928-.526-1.962-2.631-3.1774-4.593-2.6516-2.113.5661-3.177 2.6307-2.651 4.5928zm48.533-16.8867c-2.113.5661-3.178 2.6307-2.652 4.5927.566 2.113 2.48 3.2179 4.593 2.6517 1.962-.5257 3.218-2.4798 2.651-4.5928-.525-1.962-2.63-3.1774-4.592-2.6516z"/><path d="m256.557 148.676c.191-.11.342-.07.644.011 10.565 2.831 16.973 13.93 14.142 24.495-2.871 10.716-13.93 16.973-24.495 14.142-5.886-1.577-10.37-5.367-12.75-10.372l-3.033 11.319 4.83 1.295c2.566.687 4.223 3.558 3.535 6.123-.728 2.717-3.558 4.223-6.123 3.536l-19.319-5.177c-2.717-.728-4.263-3.407-3.535-6.123.687-2.566 3.407-4.264 6.123-3.536l4.83 1.294 3.033-11.319c-4.714 3.104-10.493 4.144-16.228 2.607-10.716-2.871-17.013-13.779-14.142-24.495 2.831-10.564 13.779-17.013 24.495-14.142.151.041.261.232.563.313-.008-1.782.246-3.331.731-5.142 2.831-10.565 13.779-17.014 24.495-14.142 10.565 2.83 16.973 13.93 14.142 24.494-.485 1.812-1.192 3.24-1.938 4.819z"/><path d="m507.865 31.9676c-1.267-1.31-.701-3.423.941-4.1155l25.354-8.8972c.342-.0701.534-.1806.835-.0997.906.2427 1.227 1.4609.531 2.2451l-17.242 17.8648c-1.078 1.0052-2.709 1.0536-3.714-.0246zm-6.69 5.6485c.485-1.8111 2.771-2.4928 4.188-1.1424l5.66 6.0457c1.045.9273.943 2.5174-.135 3.5226l-12.777 11.4588c-.886.8947-2.274.0375-1.951-1.1699zm50.802-12.1078c-.21-1.0268.677-1.9215 1.582-1.6789.302.0809.413.2722.674.5041l17.509 20.3823c1.075 1.4205.509 3.5334-1.243 4.0346l-9.293 2.6863c-1.41.4311-2.798-.4261-3.078-1.7953zm21.642 31.5192-5.014 18.7148c-.324 1.2074-2.105 1.2154-2.426-.0029l-5.335-16.3116c-.472-1.2587.275-2.838 1.644-3.1182l7.924-2.4061c1.903-.4607 3.693 1.3129 3.207 3.124zm-17.494 35.1057c1.398.2131 2.474 1.6335 2.069 3.1428-.242.9055-1.089 1.6493-2.226 1.6681l-28.548 2.7035c-.15-.0404-.342.07-.493.0296-.453-.1213-.744-.8463-.622-1.2991l2.143-7.9991c.324-1.2074 1.512-2.0212 2.76-1.8486zm-35.949 5.5733c-.151-.0405-.302-.0809-.453-.1214l-23.371-16.615c-.824-.5445-1.186-1.6118-.943-2.5173.405-1.5093 1.895-2.2423 3.213-1.7274l23.38 9.3381c1.167.4744 1.94 1.814 1.617 3.0214l-2.144 7.9991c-.121.4528-.846.7438-1.299.6225zm-23.761-27.2341c-1.771-.6362-2.15-2.8408-.69-4.067l16.817-15.0673c1.31-1.2666 3.533-.509 4.034 1.2429l6.914 26.1167c.321 1.2183-.908 2.183-2.116 1.8595zm67.378 14.1716c.501 1.7519-.93 3.4713-2.782 3.137l-26.466-3.8564c-1.248-.1726-1.679-1.5822-.792-2.4769l18.895-19.2015c1.31-1.2666 3.574-.66 4.075 1.0919zm-33.196-7.1154c-.846.7438-2.204.3799-2.565-.6875l-6.192-23.9821c-.501-1.7519 1.122-3.5818 3.084-3.056l21.884 5.8638c1.962.5258 2.452 2.9218 1.142 4.1884zm-5.738-32.9192c-1.811-.4853-2.492-2.7709-1.182-4.0375l17.897-18.4981c.655-.6333 1.571-1.0348 2.477-.7922l.453.1214c.905.2426 1.498 1.0485 1.749 1.9245l6.25 24.9685c.502 1.7519-1.232 3.3905-3.043 2.9052z"/><path d="m495.363 170.353c-3.681-13.734.167-28.353 10.381-38.531 10.063-10.138 24.702-14.06 38.637-10.353 13.783 3.748 24.576 14.444 28.256 28.178 3.72 13.886-.278 28.545-10.341 38.682-10.214 10.178-24.854 14.101-38.637 10.353-13.935-3.707-24.576-14.444-28.296-28.329zm55.367-25.189c-1.82-6.791-7.292-12.119-14.108-14.013-6.967-1.854-14.362.128-19.318 5.176-5.107 5.089-7.031 12.399-5.211 19.19 1.86 6.943 7.181 12.311 14.148 14.165 6.816 1.894 14.212-.088 19.319-5.177 4.955-5.048 7.03-12.398 5.17-19.341zm-14.015-4.009c.485 1.811.286 3.482-.407 5.124 2.065 1.064 3.879 3.005 4.526 5.419 1.253 4.679-1.66 9.504-6.187 10.717-4.679 1.254-9.463-1.509-10.717-6.187-.647-2.415-.197-4.962 1.059-6.916-1.27-1.116-2.278-2.463-2.763-4.274-1.052-3.925 1.228-8.094 5.303-9.186 3.924-1.052 8.134 1.379 9.186 5.303zm-6.598 4.356c1.208-.323 2.132-1.703 1.768-3.062-.323-1.207-1.854-2.091-3.062-1.767-1.358.364-2.091 1.854-1.768 3.061.364 1.359 1.704 2.132 3.062 1.768zm5.887 7.481c-.526-1.962-2.631-3.177-4.593-2.651-2.113.566-3.177 2.631-2.651 4.593.566 2.113 2.48 3.217 4.593 2.651 1.962-.525 3.217-2.48 2.651-4.593z"/></g></g></svg>